 <?xml version="1.0" encoding="utf-8"?>
<!-- Generator: Adobe Illustrator 24.0.0, SVG Export Plug-In . SVG Version: 6.00 Build 0)  -->
<svg version="1.1" id="Layer_1" xmlns="http://www.w3.org/2000/svg" xmlns:xlink="http://www.w3.org/1999/xlink" x="0px" y="0px"
	 viewBox="0 0 864 864" style="enable-background:new 0 0 864 864;" xml:space="preserve">
<style type="text/css">
	.st0{fill:#010101;}
</style>
<g>
	<g>
		<polygon class="st0" points="170.3,717 159.8,717 159.8,726.4 155.9,726.4 155.9,717 145.5,717 145.5,706.9 119.1,706.9 
			119.1,789.7 145.5,789.7 145.5,754.5 149.4,754.5 149.4,763.6 165.6,763.6 165.6,754.5 170.3,754.5 170.3,789.7 195.9,789.7 
			195.9,706.9 170.3,706.9 		"/>
		<rect x="204.5" y="706.9" class="st0" width="26.1" height="82.8"/>
		<polygon class="st0" points="290.2,736.9 286.3,736.9 286.3,726.8 275.8,726.8 275.8,717 266,717 266,706.9 239,706.9 239,789.7 
			265.4,789.7 265.4,759.7 269.3,759.7 269.3,769.8 279.8,769.8 279.8,779.5 290.2,779.5 290.2,789.7 315.9,789.7 315.9,706.9 
			290.2,706.9 		"/>
		<polygon class="st0" points="324.4,789.7 387,789.7 387,767.8 351.7,767.8 351.7,759.4 387,759.4 387,737.2 351.7,737.2 
			351.7,728.8 387,728.8 387,706.9 324.4,706.9 		"/>
		<polygon class="st0" points="404.9,717 394.8,717 394.8,779.5 404.9,779.5 404.9,789.7 461.9,789.7 461.9,767.8 421.5,767.8 
			421.5,728.8 461.9,728.8 461.9,706.9 404.9,706.9 		"/>
		<path class="st0" d="M469.1,789.7h27v-30h9.2v30h27v-31.6h-7.2v-3.9h7.2v-47.3h-63.2V789.7z M496.5,729.1h8.5v7.8h-8.5V729.1z"/>
		<path class="st0" d="M540.8,789.7h27v-22.2h9.2v22.2h27v-82.8h-63.2V789.7z M568.1,726.4h8.5v20.9h-8.5V726.4z"/>
		<polygon class="st0" points="612.5,789.7 639.5,789.7 639.5,759.4 675.1,759.4 675.1,737.2 639.8,737.2 639.8,728.8 675.1,728.8 
			675.1,706.9 612.5,706.9 		"/>
		<polygon class="st0" points="681.5,706.9 681.5,728.8 699.5,728.8 699.5,789.7 726.8,789.7 726.8,728.8 744.7,728.8 744.7,706.9 
					"/>
	</g>
	<path class="st0" d="M586.5,73.9H274.9v152.7h-70.1v153.1h70.1V533h-70.1v75.8h70.1v77.8h235.7V610h73.1v75.4h75.6v-77.1h-72.7V533
		h76v-76.7h-76V302.6h76.4v-77h-76.4L586.5,73.9L586.5,73.9z M587.7,659h46.2l21.7,22.7h-67.9L587.7,659L587.7,659z M578.7,83.8
		L563,122.7H299l-16.5-38.8C282.5,83.8,578.7,83.8,578.7,83.8z M289.1,370.9L334.4,190l230.4,61.6L504.2,494L301,440.3v-69.3
		L289.1,370.9L289.1,370.9z M238.2,247.6l-27.9-17.4l64.5,0.1l24.1,17.4L238.2,247.6z M238.2,539.4H301v-92.2l200.2,52.3
		l-35.5,134.4H301v-58.7h-62.8V539.4z M274.9,603.8h-64.5l27.9-25h57L274.9,603.8z M282.1,681.1l18.9-40.5h189.4l16.5,40.5H282.1z
		 M510.6,603.8L500,576.3h48.1l35.5,27.5H510.6z M587.7,510.3h46.2l20.7,16.8h-66.9V510.3z M587.7,229.3h70.6l-24.4,18.2l-46.2,0
		L587.7,229.3L587.7,229.3z M667.7,382.2v73.8H741v-73.8H667.7z M671.9,451.5v-15.4h42.6l16.4,15.4H671.9z M202.5,150.7h-79.7v76.2
		h79.7V150.7z M197.4,171.8h-46.9L131,154.6h66.4C197.4,154.6,197.4,171.8,197.4,171.8z M125.8,532.1c25.9,0,51.2,0,76.7,0
		c0-25.5,0-50.4,0-75.5c-25.7,0-50.9,0-76.7,0C125.8,481.8,125.8,506.9,125.8,532.1z M150.5,505.3h46.9v22.8H131L150.5,505.3z
		 M365.9,428.4l-26.4-7l24.7-92.7l26.4,7l7.9-29.7l55.4,14.7l-7.9,29.7l26.4,7l-24.7,92.7l-26.4-7l8.5-32l-55.4-14.7L365.9,428.4z
		 M513,334.7L457.6,320l15.8-59.5l55.4,14.7L513,334.7z M395.6,303.5l-55.4-14.7l15.8-59.5l55.4,14.7L395.6,303.5z"/>
</g>
</svg>
